<svg width="72" height="36" viewBox="0 0 72 36" fill="none" xmlns="http://www.w3.org/2000/svg">
<path d="M19.1025 24.4102C19.7772 24.4102 20.313 24.4326 20.709 24.4766C21.1196 24.5059 21.5669 24.5936 22.0508 24.7402C22.5788 24.9016 23.0045 25.1217 23.3271 25.4004C23.6643 25.679 23.95 26.0749 24.1846 26.5879C24.4046 27.1159 24.5146 27.7471 24.5146 28.4805V31.626C24.5146 32.286 24.4046 32.8656 24.1846 33.3643C23.9793 33.8628 23.7083 34.2516 23.3711 34.5303C23.0778 34.7796 22.6744 34.9852 22.1611 35.1465C21.6625 35.2932 21.1705 35.3886 20.6865 35.4326C20.2466 35.4766 19.7184 35.498 19.1025 35.498C18.4427 35.498 17.8999 35.4766 17.4746 35.4326C17.0493 35.3886 16.5943 35.3 16.1104 35.168C15.5828 35.0214 15.1575 34.8165 14.835 34.5527C14.5123 34.2741 14.2405 33.8853 14.0205 33.3867C13.8005 32.9027 13.6904 32.3153 13.6904 31.626V28.4805C13.6904 27.7765 13.8005 27.1598 14.0205 26.6318C14.2405 26.104 14.527 25.6937 14.8789 25.4004C15.1869 25.1511 15.5902 24.9455 16.0889 24.7842C16.6022 24.6082 17.101 24.4981 17.585 24.4541C18.1421 24.4248 18.648 24.4102 19.1025 24.4102ZM45.0527 24.4102C46.739 24.4102 47.9708 24.7036 48.748 25.29C49.54 25.862 49.9365 26.8381 49.9365 28.2168V30.8125H43.0283V31.7803C43.0283 32.3963 43.2485 32.8366 43.6885 33.1006C44.1285 33.3645 44.9206 33.4961 46.0645 33.4961C47.1203 33.4961 48.3081 33.3421 49.6279 33.0342V35.0801C48.3227 35.3587 46.9294 35.498 45.4482 35.498C41.679 35.498 39.7939 34.3466 39.7939 32.0439V28.2168C39.7939 26.8822 40.2197 25.9138 41.0703 25.3125C41.9356 24.7112 43.2634 24.4102 45.0527 24.4102ZM11.6602 23.0684L4.22363 32.8145H11.792V35.2783H0V33.1885L7.43652 23.4424H0.219727V21H11.6602V23.0684ZM33.5967 24.4102C34.9603 24.4102 35.9134 24.6597 36.4561 25.1582C37.0134 25.6422 37.292 26.4128 37.292 27.4688V35.2783H34.0801V27.8867C34.0801 27.4761 34.0362 27.1672 33.9482 26.9619C33.8748 26.7568 33.713 26.6104 33.4639 26.5225C33.2292 26.4346 32.8627 26.3906 32.3643 26.3906C31.7337 26.3906 31.2718 26.4345 30.9785 26.5225C30.6852 26.5958 30.4874 26.7351 30.3848 26.9404C30.2821 27.1458 30.2305 27.4614 30.2305 27.8867V35.2783H27.0186V24.6299H30.1865V25.9287C30.4359 24.9167 31.5727 24.4102 33.5967 24.4102ZM19.1025 26.3906C18.2523 26.3907 17.6733 26.5077 17.3652 26.7422C17.0572 26.9769 16.9023 27.3879 16.9023 27.9746V32C16.9023 32.396 16.9618 32.697 17.0791 32.9023C17.2111 33.1076 17.4313 33.2616 17.7393 33.3643C18.0472 33.4522 18.5016 33.4961 19.1025 33.4961C19.7039 33.4961 20.1588 33.4523 20.4668 33.3643C20.7747 33.2616 20.9871 33.1076 21.1045 32.9023C21.2365 32.697 21.3027 32.396 21.3027 32V27.9746C21.3027 27.3879 21.1488 26.9769 20.8408 26.7422C20.5328 26.5076 19.9531 26.3906 19.1025 26.3906ZM45.0088 26.3906C44.2315 26.3906 43.7103 26.4783 43.4463 26.6543C43.1676 26.845 43.0283 27.109 43.0283 27.4463V28.9863H46.8779V27.4463C46.8779 27.0943 46.7317 26.8303 46.4385 26.6543C46.1599 26.4783 45.6832 26.3907 45.0088 26.3906ZM65.9072 11.1543L68.085 3.62988H71.4072L65.5771 18.8545H62.3213L64.2568 14.1904L60.0107 3.62988H63.5088L65.9072 11.1543ZM19.4434 3.41016C21.1296 3.4102 22.3614 3.70358 23.1387 4.29004C23.9307 4.86204 24.3271 5.83813 24.3271 7.2168V9.8125H17.4189V10.7803C17.4189 11.3963 17.6391 11.8366 18.0791 12.1006C18.5191 12.3645 19.3113 12.4961 20.4551 12.4961C21.511 12.4961 22.6987 12.3421 24.0186 12.0342V14.0801C22.7133 14.3587 21.3201 14.498 19.8389 14.498C16.0696 14.498 14.1846 13.3466 14.1846 11.0439V7.2168C14.1846 5.88218 14.6103 4.91384 15.4609 4.3125C16.3263 3.71117 17.654 3.41016 19.4434 3.41016ZM31.1377 3.41016C32.5017 3.41016 33.5508 3.51342 34.2842 3.71875C35.032 3.92408 35.567 4.27586 35.8896 4.77441C36.2123 5.27305 36.374 5.9989 36.374 6.95215V14.2783H33.2275V13.3105C32.9782 13.7357 32.641 14.036 32.2158 14.2119C31.7905 14.4026 30.9839 14.498 29.7959 14.498C28.7986 14.498 28.0504 14.4104 27.5518 14.2344C27.0679 14.0437 26.7229 13.7134 26.5176 13.2441C26.327 12.7601 26.2324 12.041 26.2324 11.0879C26.2325 10.2374 26.3347 9.56986 26.54 9.08594C26.76 8.60211 27.105 8.25802 27.5742 8.05273C28.0582 7.83276 28.7179 7.72268 29.5537 7.72266H33.1621V6.99609C33.1621 6.54154 33.0958 6.20434 32.9639 5.98438C32.8466 5.76444 32.6194 5.61047 32.2822 5.52246C31.9596 5.43446 31.4676 5.39062 30.8076 5.39062C29.8984 5.39065 28.652 5.47835 27.0684 5.6543V3.62988C28.2269 3.48326 29.5833 3.41017 31.1377 3.41016ZM42.4121 11C42.4121 11.4107 42.4491 11.7195 42.5225 11.9248C42.6105 12.1298 42.7715 12.2763 43.0059 12.3643C43.2552 12.4523 43.6293 12.4961 44.1279 12.4961C44.7583 12.4961 45.2203 12.46 45.5137 12.3867C45.807 12.2987 46.0057 12.1516 46.1084 11.9463C46.211 11.741 46.2617 11.4252 46.2617 11V3.62988H49.4736V14.2783H46.3057V12.9805C46.0709 13.9923 44.934 14.498 42.8955 14.498C41.5318 14.498 40.5709 14.2564 40.0137 13.7725C39.4711 13.2738 39.2002 12.4963 39.2002 11.4404V3.62988H42.4121V11ZM56.4639 3.62988H59.3896V5.61035H56.4639V10.626C56.4639 11.1391 56.5078 11.528 56.5957 11.792C56.6837 12.0413 56.8523 12.2254 57.1016 12.3428C57.3509 12.4454 57.7328 12.4961 58.2461 12.4961C58.4514 12.4961 58.8326 12.46 59.3896 12.3867V14.3887C58.7007 14.462 58.1069 14.498 57.6084 14.498C57.0658 14.498 56.6108 14.4766 56.2441 14.4326C55.8775 14.3886 55.5102 14.3 55.1436 14.168C54.7331 14.036 54.3957 13.8527 54.1318 13.6182C53.8826 13.3835 53.6769 13.061 53.5156 12.6504C53.3397 12.2252 53.252 11.7339 53.252 11.1768V5.61035H51.0957V3.62988H53.252V0.550781H56.4639V3.62988ZM6.44629 0C7.81007 8.61855e-06 8.85851 0.103311 9.5918 0.308594C10.3395 0.499198 10.8677 0.814133 11.1758 1.25391C11.4838 1.67924 11.6377 2.28126 11.6377 3.05859V4.81836C11.6377 5.21433 11.4769 5.58845 11.1543 5.94043C10.8463 6.29243 10.479 6.53402 10.0537 6.66602V6.77637C10.611 6.83503 11.1176 7.07668 11.5723 7.50195C12.0416 7.91262 12.2764 8.37534 12.2764 8.88867V11.0879C12.2764 12.2466 11.8136 13.0687 10.8896 13.5527C9.96571 14.0365 8.53597 14.2783 6.60059 14.2783H0.660156V0H6.44629ZM30.9619 9.48242C30.4634 9.48243 30.1116 9.51946 29.9062 9.59277C29.701 9.65143 29.5616 9.78301 29.4883 9.98828C29.4149 10.1789 29.3779 10.5238 29.3779 11.0225C29.3779 11.5064 29.415 11.8435 29.4883 12.0342C29.5616 12.2248 29.7009 12.3495 29.9062 12.4082C30.1262 12.4668 30.5074 12.4961 31.0498 12.4961C31.6947 12.4961 32.1568 12.4746 32.4355 12.4307C32.6409 12.4013 32.7812 12.3565 32.8545 12.2979C32.9422 12.2392 33.0157 12.1443 33.0742 12.0127C33.1328 11.9101 33.1621 11.7559 33.1621 11.5508V9.48242H30.9619ZM4.0918 11.8359H6.53418C7.37015 11.8359 7.96442 11.7414 8.31641 11.5508C8.66839 11.3601 8.84375 11.0513 8.84375 10.626V9.48242C8.84375 8.95442 8.70445 8.58035 8.42578 8.36035C8.16174 8.14045 7.68527 8.03027 6.99609 8.03027H4.0918V11.8359ZM19.3994 5.39062C18.6221 5.39062 18.1009 5.4783 17.8369 5.6543C17.5583 5.84496 17.419 6.10898 17.4189 6.44629V7.98633H21.2686V6.44629C21.2685 6.09434 21.1224 5.83029 20.8291 5.6543C20.5505 5.47834 20.0738 5.39066 19.3994 5.39062ZM4.0918 5.80859H6.44629C6.98886 5.80858 7.39228 5.76475 7.65625 5.67676C7.92015 5.58879 8.09654 5.44935 8.18457 5.25879C8.28724 5.05346 8.33789 4.75926 8.33789 4.37793V3.6748C8.33789 3.33769 8.29394 3.0881 8.20605 2.92676C8.11808 2.75081 7.93479 2.62608 7.65625 2.55273C7.39225 2.4794 6.96655 2.44238 6.37988 2.44238H4.0918V5.80859Z" fill="#2B7FFF"/>
</svg>
