<svg aria-hidden="true" style="position: absolute; width: 0; height: 0; overflow: hidden;" version="1.1" xmlns="http://www.w3.org/2000/svg" xmlns:xlink="http://www.w3.org/1999/xlink">
<defs>
<symbol id="icon-Arrow-1" viewBox="0 0 38 32">
<path d="M0.625 17.218c-0.386-0.386-0.625-0.919-0.625-1.508s0.239-1.122 0.625-1.508l13.576-13.576c0.382-0.364 0.9-0.588 1.471-0.588 1.179 0 2.134 0.955 2.134 2.134 0 0.571-0.224 1.089-0.589 1.472l0.001-0.001-12.068 12.068 12.068 12.068c0.364 0.382 0.588 0.9 0.588 1.471 0 1.179-0.955 2.134-2.134 2.134-0.571 0-1.089-0.224-1.472-0.589l0.001 0.001zM37.892 15.71v2.133h-35.759v-4.267h35.759v2.133z"></path>
</symbol>
<symbol id="icon-ph_instagram-logo-light" viewBox="0 0 32 32">
<path d="M16 10.25c-2.382 0-4.425 1.448-5.298 3.512l-0.014 0.038c-0.277 0.65-0.438 1.406-0.438 2.2 0 3.176 2.574 5.75 5.75 5.75s5.75-2.574 5.75-5.75c0-3.175-2.574-5.75-5.749-5.75h-0zM16 20.25c-0.001 0-0.003 0-0.004 0-2.346 0-4.248-1.902-4.248-4.248 0-1.175 0.477-2.238 1.247-3.007l0-0c0.769-0.768 1.832-1.243 3.005-1.243 1.467 0 2.76 0.742 3.525 1.872l0.010 0.015c0.449 0.663 0.716 1.481 0.716 2.361 0 0 0 0 0 0v0c-0.009 2.344-1.906 4.242-4.249 4.25h-0.001zM21.5 3.75h-11c-3.728 0-6.75 3.022-6.75 6.75v0 11c0 3.728 3.022 6.75 6.75 6.75v0h11c3.728 0 6.75-3.022 6.75-6.75v0-11c0-3.728-3.022-6.75-6.75-6.75v0zM26.75 21.5c0 0.001 0 0.002 0 0.003 0 2.898-2.349 5.247-5.247 5.247-0.001 0-0.002 0-0.003 0h-11c-0.001 0-0.002 0-0.003 0-2.898 0-5.247-2.349-5.247-5.247 0-0.001 0-0.002 0-0.003v0-11c0-0.001 0-0.002 0-0.003 0-2.898 2.349-5.247 5.247-5.247 0.001 0 0.002 0 0.003 0h11c0.001 0 0.002 0 0.003 0 2.898 0 5.247 2.349 5.247 5.247 0 0.001 0 0.002 0 0.003v-0zM23.75 9.5c0 0.002 0 0.004 0 0.006 0 0.516-0.315 0.959-0.764 1.145l-0.008 0.003c-0.142 0.061-0.306 0.096-0.48 0.096-0.604 0-1.108-0.429-1.223-0.999l-0.001-0.008c-0.015-0.072-0.023-0.155-0.023-0.239 0-0.432 0.218-0.814 0.55-1.041l0.004-0.003c0.195-0.132 0.436-0.211 0.695-0.211 0.345 0 0.657 0.14 0.883 0.366v0c0.234 0.234 0.366 0.552 0.366 0.884z"></path>
</symbol>
<symbol id="icon-telephone-receiver_icon-iconscom_56033-1" viewBox="0 0 32 32">
<path d="M27.655 22.957l-0.173-0.216c-1.372-1.735-2.519-2.637-3.503-2.756-0.851-0.116-1.673 0.472-2.548 1.077l-0.935 0.584c-0.092 0.048-0.2 0.093-0.313 0.128l-0.014 0.004c-0.547 0.155-1.927 0.245-2.708-0.469-0.909-0.832-2.32-2.355-3.417-3.685-1.048-1.377-2.2-3.095-2.801-4.176-0.508-0.916-0.083-2.197 0.201-2.672q0.086-0.14 0.211-0.276l0.824-0.761c0.012-0.012 0.017-0.027 0.028-0.037 0.008-0.008 0.021-0.005 0.031-0.012 0.744-0.628 1.513-1.275 1.619-2.105 0.124-0.976-0.483-2.296-1.857-4.029l-0.168-0.216c-0.851-1.091-2.137-2.74-3.985-2.468-0.727 0.108-1.376 0.356-2.045 0.776-0.007 0.004-0.011 0.012-0.016 0.016s-0.012 0.004-0.017 0.008l-0.932 0.691c-0.009 0.005-0.015 0.017-0.024 0.025-0.007 0.007-0.017 0.008-0.025 0.015-0.127 0.107-0.232 0.199-0.336 0.292l0.013-0.012c-0.945 0.843-2.992 3.289-1.596 7.815 0.901 2.923 2.76 6.333 5.388 9.883l-0.025 0.021 1.449 1.805 0.012-0.009c2.849 3.371 5.749 5.976 8.407 7.553 1.773 1.053 3.323 1.401 4.597 1.401 1.677 0 2.879-0.603 3.481-0.995l0.379-0.253c0.043-0.029 0.073-0.071 0.104-0.108l0.825-0.621 0.024-0.027c0.004-0.004 0.011-0.003 0.016-0.007 0.587-0.536 0.993-1.097 1.276-1.763 0.732-1.705-0.579-3.339-1.445-4.42zM28.12 26.959c-0.22 0.517-0.541 0.957-1.005 1.384l-1.228 0.924c-1.112 0.723-3.489 1.616-6.943-0.435-2.657-1.577-5.583-4.244-8.461-7.712l-0.779-0.984c-2.711-3.595-4.617-7.037-5.517-9.955-1.169-3.793 0.304-5.828 1.291-6.707q0.15-0.135 0.299-0.259l0.004-0.004 0.895-0.663c0.464-0.308 1.013-0.528 1.605-0.621l0.023-0.003c1.239-0.187 2.247 1.12 2.987 2.069l0.173 0.22c1.536 1.937 1.684 2.859 1.636 3.235-0.053 0.417-0.688 0.952-1.248 1.423l-0.079 0.067-0.007 0.009-0.012 0.007-0.852 0.788q-0.007 0.008-0.013 0.019c-0.006 0.011-0.016 0.009-0.021 0.016-0.121 0.133-0.232 0.28-0.33 0.436l-0.007 0.013c-0.479 0.801-0.931 2.457-0.217 3.739 0.623 1.12 1.808 2.889 2.897 4.319 1.139 1.381 2.591 2.949 3.532 3.809 0.705 0.644 1.687 0.86 2.536 0.86 0.455 0 0.872-0.063 1.188-0.152q0.25-0.073 0.516-0.204c0.011-0.005 0.016-0.015 0.027-0.021 0.005-0.003 0.013-0.001 0.019-0.005l0.989-0.619c0.032-0.021 0.053-0.049 0.080-0.076l0.012 0.013c0.609-0.423 1.304-0.919 1.739-0.847 0.385 0.047 1.26 0.417 2.799 2.36l0.177 0.223c0.749 0.935 1.776 2.215 1.297 3.333z"></path>
</symbol>
<symbol id="icon-uit_facebook-f" viewBox="0 0 32 32">
<path d="M23.987 2.128c-1.176-0.133-2.539-0.208-3.92-0.208-0.045 0-0.091 0-0.136 0l0.007-0c-4.484 0-7.271 2.856-7.271 7.453v3.121h-3.767c-0 0-0.001 0-0.001 0-0.367 0-0.665 0.298-0.665 0.665 0 0 0 0.001 0 0.001v-0 5.133c0 0 0 0.001 0 0.001 0 0.367 0.298 0.665 0.665 0.665 0 0 0.001 0 0.001 0h3.767v10.293c0 0 0 0.001 0 0.001 0 0.367 0.298 0.665 0.665 0.665 0 0 0.001 0 0.001 0h5.304c0 0 0.001 0 0.001 0 0.367 0 0.665-0.298 0.665-0.665 0-0 0-0.001 0-0.001v0-10.293h3.755c0.337-0.002 0.616-0.252 0.661-0.578l0-0.003 0.663-5.133q0.018-0.143-0.023-0.281c-0.041-0.138-0.074-0.175-0.137-0.246q-0.096-0.107-0.226-0.168c-0.13-0.061-0.18-0.059-0.275-0.059h-4.417v-2.612c0-1.293 0.26-1.833 1.877-1.833h2.719c0 0 0.001 0 0.001 0 0.367 0 0.665-0.298 0.665-0.665 0-0 0-0.001 0-0.001v0-4.593c-0.002-0.337-0.252-0.616-0.578-0.661l-0.003-0zM23.233 6.715l-2.053 0.001c-2.876 0-3.209 1.808-3.209 3.167v3.28c0 0.001 0 0.001 0 0.002 0 0.367 0.298 0.665 0.665 0.665 0 0 0.001 0 0.001 0h4.328l-0.492 3.8h-3.835c-0 0-0.001 0-0.001 0-0.367 0-0.665 0.298-0.665 0.665 0 0 0 0.001 0 0.001v-0 10.291h-3.971v-10.291c0-0 0-0.001 0-0.001 0-0.367-0.298-0.665-0.665-0.665-0 0-0.001 0-0.001 0h-3.765v-3.8h3.765c0 0 0.001 0 0.001 0 0.367 0 0.665-0.298 0.665-0.665 0-0 0-0.001 0-0.001v0-3.789c0-3.832 2.22-6.12 5.937-6.12 1.345 0 2.56 0.073 3.296 0.137z"></path>
</symbol>
</defs>
</svg>
